<svg width="34" height="41" viewBox="0 0 34 41" fill="none" xmlns="http://www.w3.org/2000/svg">
<path d="M30.2222 5.59091C30.2222 4.56165 29.3765 3.72727 28.3333 3.72727H5.66667C4.62346 3.72727 3.77778 4.56165 3.77778 5.59091V35.4091C3.77778 36.4384 4.62346 37.2727 5.66667 37.2727H28.3333C29.3765 37.2727 30.2222 36.4384 30.2222 35.4091V5.59091ZM9.46289 29.8182C10.5061 29.8182 11.3518 30.6526 11.3518 31.6818C11.3518 32.7111 10.5061 33.5455 9.46289 33.5455H9.44444C8.40124 33.5455 7.55556 32.7111 7.55556 31.6818C7.55556 30.6526 8.40124 29.8182 9.44444 29.8182H9.46289ZM17.0184 29.8182L17.2121 29.8273C18.1646 29.9227 18.9073 30.7169 18.9073 31.6818C18.9073 32.6467 18.1646 33.4409 17.2121 33.5364L17.0184 33.5455H17C15.9568 33.5455 15.1111 32.7111 15.1111 31.6818C15.1111 30.6526 15.9568 29.8182 17 29.8182H17.0184ZM22.6667 31.6818V24.2273C22.6667 23.198 23.5124 22.3636 24.5556 22.3636C25.5988 22.3636 26.4444 23.198 26.4444 24.2273V31.6818C26.4444 32.7111 25.5988 33.5455 24.5556 33.5455C23.5124 33.5455 22.6667 32.7111 22.6667 31.6818ZM9.46289 22.3636L9.65658 22.3727C10.609 22.4682 11.3518 23.2624 11.3518 24.2273C11.3518 25.1922 10.609 25.9863 9.65658 26.0818L9.46289 26.0909H9.44444C8.40124 26.0909 7.55556 25.2565 7.55556 24.2273C7.55556 23.198 8.40124 22.3636 9.44444 22.3636H9.46289ZM17.0184 22.3636L17.2121 22.3727C18.1646 22.4682 18.9073 23.2624 18.9073 24.2273C18.9073 25.1922 18.1646 25.9863 17.2121 26.0818L17.0184 26.0909H17C15.9568 26.0909 15.1111 25.2565 15.1111 24.2273C15.1111 23.198 15.9568 22.3636 17 22.3636H17.0184ZM9.46289 14.9091L9.65658 14.9182C10.609 15.0137 11.3518 15.8078 11.3518 16.7727C11.3518 17.7376 10.609 18.5318 9.65658 18.6273L9.46289 18.6364H9.44444C8.40124 18.6364 7.55556 17.802 7.55556 16.7727C7.55556 15.7435 8.40124 14.9091 9.44444 14.9091H9.46289ZM17.0184 14.9091L17.2121 14.9182C18.1646 15.0137 18.9073 15.8078 18.9073 16.7727C18.9073 17.7376 18.1646 18.5318 17.2121 18.6273L17.0184 18.6364H17C15.9568 18.6364 15.1111 17.802 15.1111 16.7727C15.1111 15.7435 15.9568 14.9091 17 14.9091H17.0184ZM24.574 14.9091C25.6172 14.9091 26.4629 15.7435 26.4629 16.7727C26.4629 17.802 25.6172 18.6364 24.574 18.6364H24.5556C23.5124 18.6364 22.6667 17.802 22.6667 16.7727C22.6667 15.7435 23.5124 14.9091 24.5556 14.9091H24.574ZM24.5556 7.45455C25.5988 7.45455 26.4444 8.28892 26.4444 9.31818C26.4444 10.3474 25.5988 11.1818 24.5556 11.1818H9.44444C8.40124 11.1818 7.55556 10.3474 7.55556 9.31818C7.55556 8.28892 8.40124 7.45455 9.44444 7.45455H24.5556ZM34 35.4091C34 38.4969 31.4629 41 28.3333 41H5.66667C2.53705 41 0 38.4969 0 35.4091V5.59091C0 2.50314 2.53705 0 5.66667 0H28.3333C31.4629 0 34 2.50314 34 5.59091V35.4091Z" fill="#C7FFE4"/>
</svg>
